<svg id="Layer_1" data-name="Layer 1" xmlns="http://www.w3.org/2000/svg" viewBox="0 0 250 250"><defs><style>.cls-1{fill:#006ca9;}</style></defs><title>arrow_start</title><g id="Regular-M"><path class="cls-1" d="M4.13,125.07c0,7.13,4.94,12.21,12.08,12.21h138.7l29.36-1-45.14,41.16-30.32,30.73a12.53,12.53,0,0,0-3.43,8.91,11.58,11.58,0,0,0,11.94,11.8,12.46,12.46,0,0,0,9.19-4l91-90.68a13.79,13.79,0,0,0,3.84-6.45v89.86c0,7,5.07,11.8,12.35,11.8,7.13,0,12.21-4.8,12.21-11.8V32.6c0-7.13-5.08-12.07-12.21-12.07-7.28,0-12.35,4.94-12.35,12.07v89.59a13.79,13.79,0,0,0-3.84-6.45l-91-90.68a12.62,12.62,0,0,0-9.19-4.12,11.69,11.69,0,0,0-11.94,11.94,12,12,0,0,0,3.43,8.78l30.32,30.86,45,41.3-29.22-1.1H16.21C9.07,112.72,4.13,117.8,4.13,125.07Z"/></g></svg>